<svg width="0" height="0" class="hidden">
    <symbol fill="inherit" xmlns="http://www.w3.org/2000/svg" viewBox="0 0 16 16" id="drop-line">
        <path fill-rule="evenodd" clip-rule="evenodd" d="M16.8136 4.27938C17.0919 4.61484 17.0543 5.11988 16.7296 5.40742L9.50384 11.8074C9.21391 12.0642 8.78609 12.0642 8.49616 11.8074L1.27037 5.40742C0.945731 5.11988 0.908134 4.61484 1.1864 4.27938C1.46466 3.94392 1.95341 3.90507 2.27804 4.19261L9 10.1463L15.722 4.19261C16.0466 3.90507 16.5353 3.94392 16.8136 4.27938Z" fill="inherit"/>
    </symbol>

    <symbol fill="inherit" xmlns="http://www.w3.org/2000/svg" viewBox="0 0 16 16" id="linkarrow-solid">
        <path d="M5.03586 0.677406H0L0 16L15.3404 16L15.3404 10.9502H8.6402L16 3.58849L12.4603 0L5.03586 7.42637V0.677406Z" fill="inherit"/>
    </symbol>

    <symbol fill="inherit" xmlns="http://www.w3.org/2000/svg" viewBox="0 0 16 16" id="search-line">
        <path d="M7.03137 12.3046C7.72386 12.3046 8.40956 12.1682 9.04934 11.9032C9.68911 11.6382 10.2704 11.2497 10.7601 10.7601C11.2497 10.2704 11.6382 9.6891 11.9032 9.04933C12.1682 8.40956 12.3046 7.72385 12.3046 7.03137C12.3046 6.33888 12.1682 5.65318 11.9032 5.0134C11.6382 4.37363 11.2497 3.79232 10.7601 3.30266C10.2704 2.81299 9.68911 2.42457 9.04934 2.15957C8.40956 1.89457 7.72386 1.75817 7.03137 1.75817C5.63283 1.75817 4.29157 2.31374 3.30266 3.30266C2.31374 4.29157 1.75817 5.63283 1.75817 7.03137C1.75817 8.4299 2.31374 9.77116 3.30266 10.7601C4.29157 11.749 5.63283 12.3046 7.03137 12.3046ZM12.5858 11.3431L15.7321 14.4894C15.816 14.5706 15.8829 14.6676 15.9289 14.7748C15.9749 14.8821 15.999 14.9974 16 15.1141C16.0009 15.2308 15.9786 15.3465 15.9343 15.4545C15.8901 15.5625 15.8247 15.6606 15.7421 15.743C15.6596 15.8255 15.5614 15.8907 15.4534 15.9348C15.3453 15.9789 15.2296 16.0011 15.1129 16C14.9962 15.9989 14.8809 15.9745 14.7737 15.9284C14.6665 15.8823 14.5696 15.8153 14.4886 15.7313L11.3422 12.5849C9.9294 13.6816 8.15175 14.1987 6.37113 14.0308C4.59051 13.863 2.94078 13.0229 1.75778 11.6815C0.574778 10.3401 -0.0525668 8.59833 0.00345308 6.8107C0.059473 5.02307 0.794647 3.32398 2.05931 2.05931C3.32398 0.794646 5.02308 0.0594729 6.81071 0.00345308C8.59834 -0.0525667 10.3401 0.574778 11.6815 1.75778C13.0229 2.94078 13.863 4.5905 14.0308 6.37112C14.1987 8.15174 13.6816 9.92939 12.5849 11.3422L12.5858 11.3431Z" fill="inherit"/>
    </symbol>

    <symbol fill="inherit" xmlns="http://www.w3.org/2000/svg" viewBox="0 0 16 16" id="cross-solid">
        <path d="M15.9999 12.48L12.4799 16L7.99999 11.52L3.52008 16L0.000105437 12.48L4.48001 8.00005L0 3.52003L3.51998 3.25369e-05L7.99999 4.48005L12.48 0L16 3.51999L11.52 8.00004L15.9999 12.48Z" fill="inherit"/>
    </symbol>

    <symbol fill="inherit" xmlns="http://www.w3.org/2000/svg" viewBox="0 0 16 16" id="payment-yoomoney">
        <path d="M10.3047 2C7.14738 2 4.61023 4.7 4.61023 8C4.61023 11.3272 7.17236 14 10.304 14C13.4356 14 16 11.3 16 8C16 4.7 13.4363 2 10.3047 2ZM10.3047 10.2364C9.14002 10.2364 8.18268 9.2272 8.18268 8C8.18268 6.7728 9.14002 5.7636 10.3047 5.7636C11.4694 5.7636 12.4272 6.7728 12.4272 8C12.4011 9.2272 11.4694 10.2364 10.3047 10.2364Z" fill="#8B3FFD"/>
        <path d="M4.61014 3.71436V12.5715H2.59065L0 3.71436H4.61014Z" fill="#8B3FFD"/>
    </symbol>

    <symbol fill="inherit" xmlns="http://www.w3.org/2000/svg" viewBox="0 0 16 16" id="payment-qiwi">
        <path d="M13.1285 10.756C13.1072 10.5802 13.0002 10.1771 12.7221 10.0735C12.5829 10.0218 12.4656 10.0629 12.4124 10.1562C12.3267 10.3011 12.3908 10.5802 12.5513 10.8287C12.7115 11.0768 12.8613 11.2009 12.9683 11.2009C13.0753 11.2009 13.1713 11.0768 13.1285 10.756Z" fill="#FF8C00"/>
        <path d="M11.6318 11.4594C11.4607 11.3147 11.2683 11.2424 11.0972 11.2424C10.9477 11.2424 10.83 11.2938 10.7549 11.387C10.5629 11.6143 10.6483 12.0283 10.9477 12.2765C11.0759 12.3903 11.2683 12.4523 11.4501 12.4523C11.6318 12.4523 11.792 12.38 11.8884 12.2662C12.0595 12.0386 11.9631 11.7284 11.6318 11.4594Z" fill="#FF8C00"/>
        <path d="M0 7.11548C0 11.0456 3.29267 14.2313 7.35559 14.2313C8.43553 14.2313 9.50418 14.0349 11.0759 14.0243C12.4765 14.0243 14.016 14.5 15.7051 15.9482C15.8762 16.0929 16.1005 15.9067 15.951 15.7309C14.2938 13.6935 12.7543 13.311 11.2148 12.9799C9.33338 12.5764 8.37107 11.5629 7.69752 10.4355C7.56925 10.2079 7.50512 10.2494 7.49415 10.539C7.48203 10.9652 7.51432 11.3914 7.59052 11.8113H7.36622C4.68264 11.8113 2.50149 9.7013 2.50149 7.1052C2.50149 4.5091 4.68264 2.39904 7.36589 2.39904C10.0495 2.39904 12.2306 4.5091 12.2306 7.1052C12.2306 7.29132 12.2197 7.47745 12.1984 7.65328C11.8349 7.59124 11.14 7.58096 10.6483 7.62242C10.4665 7.643 10.4878 7.72561 10.627 7.74651C12.2306 8.03582 13.3318 8.99794 13.5884 10.7457C13.599 10.7872 13.6525 10.7975 13.6741 10.7666C14.3261 9.7013 14.7108 8.44954 14.7108 7.11548C14.7108 3.18565 11.4178 0 7.35526 0C3.293 0 0 3.18533 0 7.11548Z" fill="#FF8C00"/>
    </symbol>

    <symbol fill="inherit" xmlns="http://www.w3.org/2000/svg" viewBox="0 0 16 16" id="payment-tether">
        <path fill-rule="evenodd" clip-rule="evenodd" d="M2.92945 1.06876L0.0119943 7.23262C0.000892557 7.25554 -0.00262552 7.28144 0.00195457 7.30652C0.00653466 7.3316 0.0189726 7.35455 0.0374496 7.37201L7.9168 14.9664C7.93918 14.9879 7.96899 15 8 15C8.03101 15 8.06082 14.9879 8.0832 14.9664L15.9626 7.37249C15.981 7.35503 15.9935 7.33208 15.998 7.307C16.0026 7.28191 15.9991 7.25602 15.988 7.23309L13.0705 1.06923C13.0611 1.04853 13.046 1.031 13.0269 1.01872C13.0079 1.00645 12.9857 0.999949 12.9631 1.00001H3.03787C3.01513 0.999725 2.9928 1.00606 2.97356 1.01826C2.95432 1.03046 2.939 1.048 2.92945 1.06876Z" fill="#50AF95"/>
        <path fill-rule="evenodd" clip-rule="evenodd" d="M9.01214 7.86546C8.95557 7.86973 8.66331 7.88727 8.01137 7.88727C7.49284 7.88727 7.12468 7.87162 6.99552 7.86546C4.99162 7.7768 3.49589 7.42593 3.49589 7.00584C3.49589 6.58575 4.99162 6.23536 6.99552 6.14527V7.51602C7.12657 7.5255 7.50179 7.54778 8.02033 7.54778C8.64257 7.54778 8.95416 7.52171 9.01026 7.51649V6.14622C11.0099 6.23583 12.5023 6.5867 12.5023 7.00584C12.5023 7.42498 11.0104 7.77585 9.01026 7.86499L9.01214 7.86546ZM9.01214 6.00445V4.77784H11.8028V2.90735H4.20487V4.77784H6.99505V6.00398C4.72717 6.10876 3.02167 6.56062 3.02167 7.10209C3.02167 7.64356 4.72717 8.09495 6.99505 8.2002V12.1308H9.01167V8.19878C11.2744 8.094 12.977 7.64261 12.977 7.10162C12.977 6.56062 11.2758 6.10923 9.01167 6.00398L9.01214 6.00445Z" fill="white"/>
    </symbol>

    <symbol fill="inherit" xmlns="http://www.w3.org/2000/svg" viewBox="0 0 16 16" id="payment-cards">
        <path d="M10.1634 7.39001H5.83698V14.9693H10.1634V7.39001Z" fill="#FF5F00"/>
        <path d="M6.11161 11.1797C6.11092 10.4498 6.2806 9.72925 6.60779 9.07268C6.93498 8.41612 7.41111 7.84072 8.00013 7.39006C7.27071 6.83114 6.39469 6.48355 5.47221 6.38703C4.54973 6.29051 3.618 6.44894 2.78352 6.84423C1.94904 7.23953 1.24548 7.85572 0.753253 8.62239C0.261027 9.38906 0 10.2753 0 11.1797C0 12.0842 0.261027 12.9704 0.753253 13.737C1.24548 14.5037 1.94904 15.1199 2.78352 15.5152C3.618 15.9105 4.54973 16.0689 5.47221 15.9724C6.39469 15.8759 7.27071 15.5283 8.00013 14.9694C7.41111 14.5187 6.93499 13.9433 6.6078 13.2867C6.28061 12.6302 6.11093 11.9097 6.11161 11.1797Z" fill="#EB001B"/>
        <path d="M16 11.1797C16 12.0842 15.739 12.9704 15.2468 13.737C14.7546 14.5037 14.0511 15.1199 13.2166 15.5152C12.3822 15.9105 11.4505 16.0689 10.528 15.9724C9.60553 15.8759 8.72953 15.5283 8.00012 14.9694C8.58863 14.5183 9.06438 13.9428 9.39152 13.2863C9.71866 12.6298 9.88864 11.9095 9.88864 11.1797C9.88864 10.4499 9.71866 9.72959 9.39152 9.07313C9.06438 8.41666 8.58863 7.84118 8.00012 7.39006C8.72953 6.83113 9.60553 6.48355 10.528 6.38703C11.4505 6.29051 12.3822 6.44895 13.2166 6.84425C14.0511 7.23954 14.7546 7.85574 15.2468 8.62241C15.739 9.38908 16 10.2753 16 11.1797Z" fill="#F79E1B"/>
        <path d="M15.5284 14.1666V14.0114H15.5925V13.9798H15.4291V14.0114H15.4933V14.1666H15.5284ZM15.8457 14.1666V13.9795H15.7956L15.738 14.1082L15.6803 13.9795H15.6302V14.1666H15.6656V14.0255L15.7196 14.1471H15.7563L15.8103 14.0252V14.1666H15.8457Z" fill="#F79E1B"/>
        <path d="M6.96373 4.95523H5.70465L6.49217 0.0882568H7.75118L6.96373 4.95523Z" fill="#00579F"/>
        <path d="M11.5281 0.207207C11.2798 0.10873 10.8859 0 10.3988 0C9.15544 0 8.27986 0.662703 8.27449 1.61017C8.26416 2.30921 8.90138 2.69747 9.37796 2.93055C9.86508 3.16872 10.0307 3.32418 10.0307 3.53648C10.0257 3.86253 9.63705 4.01283 9.27455 4.01283C8.77187 4.01283 8.50252 3.93534 8.0932 3.75394L7.92741 3.67618L7.75122 4.76871C8.04652 4.90317 8.59058 5.0225 9.15544 5.02773C10.4765 5.02773 11.3366 4.37528 11.3468 3.36561C11.3519 2.81157 11.0154 2.38704 10.29 2.04013C9.84959 1.81744 9.5799 1.66729 9.5799 1.43943C9.58507 1.2323 9.80801 1.02014 10.3051 1.02014C10.7144 1.00974 11.0152 1.10808 11.243 1.20649L11.3569 1.25817L11.5281 0.207207Z" fill="#00579F"/>
        <path d="M13.2014 3.23104C13.3051 2.95144 13.7041 1.8693 13.7041 1.8693C13.6989 1.87969 13.8076 1.58453 13.8698 1.40334L13.9577 1.82271C13.9577 1.82271 14.1962 2.9877 14.248 3.23104C14.0512 3.23104 13.4501 3.23104 13.2014 3.23104ZM14.7556 0.0882568H13.7817C13.4814 0.0882568 13.2532 0.176204 13.1236 0.492072L11.2534 4.95517H12.5745C12.5745 4.95517 12.792 4.35447 12.8388 4.22509C12.9837 4.22509 14.2689 4.22509 14.4553 4.22509C14.4915 4.39596 14.6056 4.95517 14.6056 4.95517H15.7714L14.7556 0.0882568Z" fill="#00579F"/>
        <path d="M4.65305 0.0882568L3.42 3.40707L3.28525 2.73397C3.05729 1.95731 2.34234 1.11348 1.54449 0.693911L2.67393 4.95007H4.00537L5.98442 0.0882568H4.65305Z" fill="#00579F"/>
        <path d="M2.27503 0.0882568H0.249301L0.228577 0.186596C1.80878 0.590479 2.85531 1.56403 3.28529 2.73418L2.84491 0.497371C2.77241 0.186527 2.54961 0.0985105 2.27503 0.0882568Z" fill="#FAA61A"/>
    </symbol>

    <symbol fill="inherit" xmlns="http://www.w3.org/2000/svg" viewBox="0 0 16 16" id="burger-menu">
        <path d="M0 3H16V4.42857H0V3Z" fill="inherit"/>
        <path d="M0 7.28571H16V8.71429H0V7.28571Z" fill="inherit"/>
        <path d="M0 11.5714H16V13H0V11.5714Z" fill="inherit"/>
    </symbol>
    <symbol fill="inherit" xmlns="http://www.w3.org/2000/svg" viewBox="0 0 16 16" id="mail-solid">
        <path d="M1.6 14C1.16 14 0.783465 13.8533 0.470398 13.5598C0.156798 13.2658 0 12.9125 0 12.5V3.5C0 3.0875 0.156798 2.7345 0.470398 2.441C0.783465 2.147 1.16 2 1.6 2H14.4C14.84 2 15.2168 2.147 15.5304 2.441C15.8435 2.7345 16 3.0875 16 3.5V12.5C16 12.9125 15.8435 13.2658 15.5304 13.5598C15.2168 13.8533 14.84 14 14.4 14H1.6ZM8 8.61875C8.06667 8.61875 8.13651 8.60925 8.20958 8.59025C8.28318 8.57175 8.35333 8.54375 8.42 8.50625L14.08 5.1875C14.1867 5.125 14.2667 5.047 14.32 4.9535C14.3733 4.8595 14.4 4.75625 14.4 4.64375C14.4 4.39375 14.2867 4.20625 14.06 4.08125C13.8333 3.95625 13.6 3.9625 13.36 4.1L8 7.25L2.64 4.1C2.4 3.9625 2.16666 3.95925 1.94 4.09025C1.71333 4.22175 1.6 4.40625 1.6 4.64375C1.6 4.76875 1.62665 4.878 1.67998 4.9715C1.73331 5.0655 1.81332 5.1375 1.91999 5.1875L7.57999 8.50625C7.64665 8.54375 7.7168 8.57175 7.7904 8.59025C7.86347 8.60925 7.93333 8.61875 8 8.61875Z" fill="inherit"/>
    </symbol>
    <symbol fill="inherit" xmlns="http://www.w3.org/2000/svg" viewBox="0 0 16 16" id="tg-solid">
        <path d="M14.7011 2.14775L0.525838 7.4517C-0.0445997 7.6987 -0.237513 8.19333 0.387987 8.46177L4.02452 9.58313L12.8173 4.31043C13.2974 3.97942 13.7889 4.06769 13.3659 4.43182L5.81418 11.0664L5.57694 13.8741C5.79666 14.3076 6.19897 14.3096 6.45559 14.0941L8.54492 12.1759L12.1232 14.7758C12.9543 15.2532 13.4065 14.9451 13.5853 14.0701L15.9323 3.28673C16.176 2.20965 15.7605 1.73508 14.7011 2.14775Z" fill="inherit"/>
    </symbol>
</svg>